<svg id="Layer_1" xmlns="http://www.w3.org/2000/svg" width="512" height="512" viewBox="0 0 512 512"><defs><style>.cls-1{fill:#d3e1e5}</style></defs><path class="cls-1" d="M227.126 426.147c10.175-15.263 8.14-59.017 8.14-59.017s-42.737 12.21-52.912 27.473c-10.176 15.264-11.193 32.562 4.07 42.737 15.263 10.176 30.526 4.07 40.702-11.193zM328.88 426.147c10.176-15.263 8.14-59.017 8.14-59.017s-42.736 12.21-52.912 27.473c-10.175 15.264-11.193 32.562 4.07 42.737 15.264 10.176 30.527 4.07 40.702-11.193zM397.05 168.432c-5.976-54.371-52.02-96.685-107.984-96.685-53.384 0-97.683 38.522-106.85 89.265-.613-.017-1.21-.092-1.828-.092-33.147 0-60.588 24.139-65.884 55.782-.335-.005-.658-.05-.995-.05-37.86 0-68.373 31.46-66.822 69.665 1.37 33.722 28.754 61.439 62.097 63.844a8.32 8.32 0 001.938.249H378.24c.314 0 .613-.058.919-.092 3.877-.037 7.79-.227 11.766-.759 41.45-5.548 74.427-39.645 78.759-81.24 5.063-48.627-27.807-90.566-72.633-99.887zm50.386 97.955c-3.59 32.357-30.807 58.778-63.536 61.472l-5.661.23h-264.65l.022-2.686-.113 2.684c-23.762-.054-44.159-20.123-44.54-43.824-.194-12.046 4.348-23.405 12.791-31.984 8.444-8.58 19.723-13.306 31.76-13.306.658 0 1.304.04 2.533.122 2.184.123 4.195.264 6.047.394 3.048.215 5.633.404 7.82.404 1.914 0 3.256-.159 3.99-.472.88-.377 1.931-2.7 1.931-11.622 0-1.877.15-3.715.375-5.531 2.762-22.236 21.732-39.007 44.621-39.006l.045.001a44.15 44.15 0 0117.875 3.95c.424.193.861.29 1.3.29.793 0 1.583-.331 2.112-.888.475-.5.697-1.122.66-1.849a84.972 84.972 0 01-.109-4.34c0-4.237.387-8.72 1.184-13.706 6.734-42.097 42.554-72.651 85.173-72.651 42.298 0 78.077 30.283 85.074 72.007.864 5.144 1.284 9.839 1.284 14.35 0 1.728-.057 3.443-.166 5.144-.059.912.233 1.76.822 2.387.367.39 1.01.857 2.159.857 6.601 0 13.22.964 19.676 2.864 32.436 9.546 53.263 40.965 49.52 74.709z"/></svg>